<svg width="280" height="222" viewBox="0 0 280 222" fill="none" xmlns="http://www.w3.org/2000/svg">
<rect x="54.2098" y="156.654" width="20.5502" height="67.878" rx="10.2751" transform="rotate(53 54.2098 156.654)" fill="#FFE298"/>
<rect x="54.2098" y="156.654" width="20.5502" height="67.878" rx="10.2751" transform="rotate(53 54.2098 156.654)" fill="#FFCE8F"/>
<rect x="54.2098" y="156.654" width="20.5502" height="67.878" rx="10.2751" transform="rotate(53 54.2098 156.654)" fill="#DA8B5B"/>
<rect x="54.2098" y="156.654" width="20.5502" height="67.878" rx="10.2751" transform="rotate(53 54.2098 156.654)" fill="#D0795E"/>
<rect x="54.2098" y="156.654" width="20.5502" height="67.878" rx="10.2751" transform="rotate(53 54.2098 156.654)" fill="#AC5656"/>
<path d="M265.896 7.62875C266.596 7.12098 267.573 7.26719 268.093 7.95741V7.95741V7.95741C268.613 8.64764 268.484 9.62733 267.804 10.1596L64.3703 169.203C63.0486 170.236 61.1363 169.985 60.1266 168.645L56.3069 163.576C55.2972 162.236 55.5826 160.329 56.9402 159.343L265.896 7.62875Z" fill="#FFCE8F"/>
<path d="M270.198 13.8554C270.04 13.9747 269.742 13.9897 269.318 13.7786C268.908 13.5749 268.45 13.1899 268.055 12.6648C267.659 12.1398 267.415 11.5938 267.332 11.1438C267.246 10.6774 267.343 10.3953 267.501 10.276C267.659 10.1568 267.957 10.1418 268.382 10.3529C268.791 10.5566 269.249 10.9416 269.645 11.4666C270.04 11.9917 270.284 12.5377 270.367 12.9877C270.453 13.4541 270.357 13.7361 270.198 13.8554Z" stroke="#FFE298" stroke-width="0.5"/>
<path d="M270.198 13.8554C270.04 13.9747 269.742 13.9897 269.318 13.7786C268.908 13.5749 268.45 13.1899 268.055 12.6648C267.659 12.1398 267.415 11.5938 267.332 11.1438C267.246 10.6774 267.343 10.3953 267.501 10.276C267.659 10.1568 267.957 10.1418 268.382 10.3529C268.791 10.5566 269.249 10.9416 269.645 11.4666C270.04 11.9917 270.284 12.5377 270.367 12.9877C270.453 13.4541 270.357 13.7361 270.198 13.8554Z" stroke="#FFCE8F" stroke-width="0.5"/>
<path d="M270.198 13.8554C270.04 13.9747 269.742 13.9897 269.318 13.7786C268.908 13.5749 268.45 13.1899 268.055 12.6648C267.659 12.1398 267.415 11.5938 267.332 11.1438C267.246 10.6774 267.343 10.3953 267.501 10.276C267.659 10.1568 267.957 10.1418 268.382 10.3529C268.791 10.5566 269.249 10.9416 269.645 11.4666C270.04 11.9917 270.284 12.5377 270.367 12.9877C270.453 13.4541 270.357 13.7361 270.198 13.8554Z" stroke="#DA8B5B" stroke-width="0.5"/>
<path d="M270.198 13.8554C270.04 13.9747 269.742 13.9897 269.318 13.7786C268.908 13.5749 268.45 13.1899 268.055 12.6648C267.659 12.1398 267.415 11.5938 267.332 11.1438C267.246 10.6774 267.343 10.3953 267.501 10.276C267.659 10.1568 267.957 10.1418 268.382 10.3529C268.791 10.5566 269.249 10.9416 269.645 11.4666C270.04 11.9917 270.284 12.5377 270.367 12.9877C270.453 13.4541 270.357 13.7361 270.198 13.8554Z" stroke="#D0795E" stroke-width="0.5"/>
<path d="M270.198 13.8554C270.04 13.9747 269.742 13.9897 269.318 13.7786C268.908 13.5749 268.45 13.1899 268.055 12.6648C267.659 12.1398 267.415 11.5938 267.332 11.1438C267.246 10.6774 267.343 10.3953 267.501 10.276C267.659 10.1568 267.957 10.1418 268.382 10.3529C268.791 10.5566 269.249 10.9416 269.645 11.4666C270.04 11.9917 270.284 12.5377 270.367 12.9877C270.453 13.4541 270.357 13.7361 270.198 13.8554Z" stroke="#AC5656" stroke-width="0.5"/>
<path d="M165.765 95.6709C165.606 95.7902 165.309 95.8052 164.884 95.5941C164.474 95.3904 164.017 95.0054 163.621 94.4803C163.225 93.9552 162.981 93.4092 162.898 92.9593C162.813 92.4928 162.909 92.2108 163.067 92.0915C163.226 91.9722 163.523 91.9573 163.948 92.1684C164.358 92.3721 164.815 92.7571 165.211 93.2821C165.607 93.8072 165.851 94.3532 165.933 94.8032C166.019 95.2696 165.923 95.5516 165.765 95.6709Z" stroke="#FFE298" stroke-width="0.5"/>
<path d="M165.765 95.6709C165.606 95.7902 165.309 95.8052 164.884 95.5941C164.474 95.3904 164.017 95.0054 163.621 94.4803C163.225 93.9552 162.981 93.4092 162.898 92.9593C162.813 92.4928 162.909 92.2108 163.067 92.0915C163.226 91.9722 163.523 91.9573 163.948 92.1684C164.358 92.3721 164.815 92.7571 165.211 93.2821C165.607 93.8072 165.851 94.3532 165.933 94.8032C166.019 95.2696 165.923 95.5516 165.765 95.6709Z" stroke="#FFCE8F" stroke-width="0.5"/>
<path d="M165.765 95.6709C165.606 95.7902 165.309 95.8052 164.884 95.5941C164.474 95.3904 164.017 95.0054 163.621 94.4803C163.225 93.9552 162.981 93.4092 162.898 92.9593C162.813 92.4928 162.909 92.2108 163.067 92.0915C163.226 91.9722 163.523 91.9573 163.948 92.1684C164.358 92.3721 164.815 92.7571 165.211 93.2821C165.607 93.8072 165.851 94.3532 165.933 94.8032C166.019 95.2696 165.923 95.5516 165.765 95.6709Z" stroke="#DA8B5B" stroke-width="0.5"/>
<path d="M165.765 95.6709C165.606 95.7902 165.309 95.8052 164.884 95.5941C164.474 95.3904 164.017 95.0054 163.621 94.4803C163.225 93.9552 162.981 93.4092 162.898 92.9593C162.813 92.4928 162.909 92.2108 163.067 92.0915C163.226 91.9722 163.523 91.9573 163.948 92.1684C164.358 92.3721 164.815 92.7571 165.211 93.2821C165.607 93.8072 165.851 94.3532 165.933 94.8032C166.019 95.2696 165.923 95.5516 165.765 95.6709Z" stroke="#D0795E" stroke-width="0.5"/>
<path d="M165.765 95.6709C165.606 95.7902 165.309 95.8052 164.884 95.5941C164.474 95.3904 164.017 95.0054 163.621 94.4803C163.225 93.9552 162.981 93.4092 162.898 92.9593C162.813 92.4928 162.909 92.2108 163.067 92.0915C163.226 91.9722 163.523 91.9573 163.948 92.1684C164.358 92.3721 164.815 92.7571 165.211 93.2821C165.607 93.8072 165.851 94.3532 165.933 94.8032C166.019 95.2696 165.923 95.5516 165.765 95.6709Z" stroke="#AC5656" stroke-width="0.5"/>
<path d="M128.839 124.276C128.681 124.395 128.383 124.41 127.958 124.199C127.549 123.995 127.091 123.611 126.695 123.085C126.3 122.56 126.056 122.014 125.973 121.564C125.887 121.098 125.983 120.816 126.142 120.697C126.3 120.577 126.598 120.562 127.022 120.774C127.432 120.977 127.89 121.362 128.285 121.887C128.681 122.412 128.925 122.958 129.008 123.408C129.094 123.875 128.997 124.157 128.839 124.276Z" stroke="#FFE298" stroke-width="0.5"/>
<path d="M128.839 124.276C128.681 124.395 128.383 124.41 127.958 124.199C127.549 123.995 127.091 123.611 126.695 123.085C126.3 122.56 126.056 122.014 125.973 121.564C125.887 121.098 125.983 120.816 126.142 120.697C126.3 120.577 126.598 120.562 127.022 120.774C127.432 120.977 127.89 121.362 128.285 121.887C128.681 122.412 128.925 122.958 129.008 123.408C129.094 123.875 128.997 124.157 128.839 124.276Z" stroke="#FFCE8F" stroke-width="0.5"/>
<path d="M128.839 124.276C128.681 124.395 128.383 124.41 127.958 124.199C127.549 123.995 127.091 123.611 126.695 123.085C126.3 122.56 126.056 122.014 125.973 121.564C125.887 121.098 125.983 120.816 126.142 120.697C126.3 120.577 126.598 120.562 127.022 120.774C127.432 120.977 127.89 121.362 128.285 121.887C128.681 122.412 128.925 122.958 129.008 123.408C129.094 123.875 128.997 124.157 128.839 124.276Z" stroke="#DA8B5B" stroke-width="0.5"/>
<path d="M128.839 124.276C128.681 124.395 128.383 124.41 127.958 124.199C127.549 123.995 127.091 123.611 126.695 123.085C126.3 122.56 126.056 122.014 125.973 121.564C125.887 121.098 125.983 120.816 126.142 120.697C126.3 120.577 126.598 120.562 127.022 120.774C127.432 120.977 127.89 121.362 128.285 121.887C128.681 122.412 128.925 122.958 129.008 123.408C129.094 123.875 128.997 124.157 128.839 124.276Z" stroke="#D0795E" stroke-width="0.5"/>
<path d="M128.839 124.276C128.681 124.395 128.383 124.41 127.958 124.199C127.549 123.995 127.091 123.611 126.695 123.085C126.3 122.56 126.056 122.014 125.973 121.564C125.887 121.098 125.983 120.816 126.142 120.697C126.3 120.577 126.598 120.562 127.022 120.774C127.432 120.977 127.89 121.362 128.285 121.887C128.681 122.412 128.925 122.958 129.008 123.408C129.094 123.875 128.997 124.157 128.839 124.276Z" stroke="#AC5656" stroke-width="0.5"/>
<path d="M95.8922 149.883C95.7339 150.002 95.4362 150.017 95.0115 149.806C94.6018 149.602 94.1442 149.217 93.7486 148.692C93.3529 148.167 93.109 147.621 93.0261 147.171C92.9402 146.705 93.0366 146.423 93.1949 146.304C93.3533 146.184 93.6509 146.169 94.0756 146.381C94.4853 146.584 94.9429 146.969 95.3386 147.494C95.7343 148.019 95.9782 148.565 96.0611 149.015C96.147 149.482 96.0505 149.764 95.8922 149.883Z" stroke="#FFE298" stroke-width="0.5"/>
<path d="M95.8922 149.883C95.7339 150.002 95.4362 150.017 95.0115 149.806C94.6018 149.602 94.1442 149.217 93.7486 148.692C93.3529 148.167 93.109 147.621 93.0261 147.171C92.9402 146.705 93.0366 146.423 93.1949 146.304C93.3533 146.184 93.6509 146.169 94.0756 146.381C94.4853 146.584 94.9429 146.969 95.3386 147.494C95.7343 148.019 95.9782 148.565 96.0611 149.015C96.147 149.482 96.0505 149.764 95.8922 149.883Z" stroke="#FFCE8F" stroke-width="0.5"/>
<path d="M95.8922 149.883C95.7339 150.002 95.4362 150.017 95.0115 149.806C94.6018 149.602 94.1442 149.217 93.7486 148.692C93.3529 148.167 93.109 147.621 93.0261 147.171C92.9402 146.705 93.0366 146.423 93.1949 146.304C93.3533 146.184 93.6509 146.169 94.0756 146.381C94.4853 146.584 94.9429 146.969 95.3386 147.494C95.7343 148.019 95.9782 148.565 96.0611 149.015C96.147 149.482 96.0505 149.764 95.8922 149.883Z" stroke="#DA8B5B" stroke-width="0.5"/>
<path d="M95.8922 149.883C95.7339 150.002 95.4362 150.017 95.0115 149.806C94.6018 149.602 94.1442 149.217 93.7486 148.692C93.3529 148.167 93.109 147.621 93.0261 147.171C92.9402 146.705 93.0366 146.423 93.1949 146.304C93.3533 146.184 93.6509 146.169 94.0756 146.381C94.4853 146.584 94.9429 146.969 95.3386 147.494C95.7343 148.019 95.9782 148.565 96.0611 149.015C96.147 149.482 96.0505 149.764 95.8922 149.883Z" stroke="#D0795E" stroke-width="0.5"/>
<path d="M95.8922 149.883C95.7339 150.002 95.4362 150.017 95.0115 149.806C94.6018 149.602 94.1442 149.217 93.7486 148.692C93.3529 148.167 93.109 147.621 93.0261 147.171C92.9402 146.705 93.0366 146.423 93.1949 146.304C93.3533 146.184 93.6509 146.169 94.0756 146.381C94.4853 146.584 94.9429 146.969 95.3386 147.494C95.7343 148.019 95.9782 148.565 96.0611 149.015C96.147 149.482 96.0505 149.764 95.8922 149.883Z" stroke="#AC5656" stroke-width="0.5"/>
<path d="M223.204 50.8281C223.045 50.9474 222.748 50.9624 222.323 50.7512C221.913 50.5475 221.456 50.1625 221.06 49.6375C220.664 49.1124 220.42 48.5664 220.337 48.1164C220.252 47.65 220.348 47.368 220.506 47.2487C220.665 47.1294 220.962 47.1144 221.387 47.3256C221.797 47.5293 222.254 47.9142 222.65 48.4393C223.046 48.9644 223.29 49.5104 223.372 49.9603C223.458 50.4268 223.362 50.7088 223.204 50.8281Z" stroke="#FFE298" stroke-width="0.5"/>
<path d="M223.204 50.8281C223.045 50.9474 222.748 50.9624 222.323 50.7512C221.913 50.5475 221.456 50.1625 221.06 49.6375C220.664 49.1124 220.42 48.5664 220.337 48.1164C220.252 47.65 220.348 47.368 220.506 47.2487C220.665 47.1294 220.962 47.1144 221.387 47.3256C221.797 47.5293 222.254 47.9142 222.65 48.4393C223.046 48.9644 223.29 49.5104 223.372 49.9603C223.458 50.4268 223.362 50.7088 223.204 50.8281Z" stroke="#FFCE8F" stroke-width="0.5"/>
<path d="M223.204 50.8281C223.045 50.9474 222.748 50.9624 222.323 50.7512C221.913 50.5475 221.456 50.1625 221.06 49.6375C220.664 49.1124 220.42 48.5664 220.337 48.1164C220.252 47.65 220.348 47.368 220.506 47.2487C220.665 47.1294 220.962 47.1144 221.387 47.3256C221.797 47.5293 222.254 47.9142 222.65 48.4393C223.046 48.9644 223.29 49.5104 223.372 49.9603C223.458 50.4268 223.362 50.7088 223.204 50.8281Z" stroke="#DA8B5B" stroke-width="0.5"/>
<path d="M223.204 50.8281C223.045 50.9474 222.748 50.9624 222.323 50.7512C221.913 50.5475 221.456 50.1625 221.06 49.6375C220.664 49.1124 220.42 48.5664 220.337 48.1164C220.252 47.65 220.348 47.368 220.506 47.2487C220.665 47.1294 220.962 47.1144 221.387 47.3256C221.797 47.5293 222.254 47.9142 222.65 48.4393C223.046 48.9644 223.29 49.5104 223.372 49.9603C223.458 50.4268 223.362 50.7088 223.204 50.8281Z" stroke="#D0795E" stroke-width="0.5"/>
<path d="M223.204 50.8281C223.045 50.9474 222.748 50.9624 222.323 50.7512C221.913 50.5475 221.456 50.1625 221.06 49.6375C220.664 49.1124 220.42 48.5664 220.337 48.1164C220.252 47.65 220.348 47.368 220.506 47.2487C220.665 47.1294 220.962 47.1144 221.387 47.3256C221.797 47.5293 222.254 47.9142 222.65 48.4393C223.046 48.9644 223.29 49.5104 223.372 49.9603C223.458 50.4268 223.362 50.7088 223.204 50.8281Z" stroke="#AC5656" stroke-width="0.5"/>
<path d="M195.23 72.6873C195.072 72.8066 194.774 72.8216 194.349 72.6105C193.94 72.4068 193.482 72.0218 193.086 71.4967C192.691 70.9717 192.447 70.4257 192.364 69.9757C192.278 69.5093 192.374 69.2272 192.533 69.108C192.691 68.9887 192.989 68.9737 193.413 69.1848C193.823 69.3885 194.281 69.7735 194.676 70.2986C195.072 70.8236 195.316 71.3696 195.399 71.8196C195.485 72.286 195.388 72.568 195.23 72.6873Z" stroke="#FFE298" stroke-width="0.5"/>
<path d="M195.23 72.6873C195.072 72.8066 194.774 72.8216 194.349 72.6105C193.94 72.4068 193.482 72.0218 193.086 71.4967C192.691 70.9717 192.447 70.4257 192.364 69.9757C192.278 69.5093 192.374 69.2272 192.533 69.108C192.691 68.9887 192.989 68.9737 193.413 69.1848C193.823 69.3885 194.281 69.7735 194.676 70.2986C195.072 70.8236 195.316 71.3696 195.399 71.8196C195.485 72.286 195.388 72.568 195.23 72.6873Z" stroke="#FFCE8F" stroke-width="0.5"/>
<path d="M195.23 72.6873C195.072 72.8066 194.774 72.8216 194.349 72.6105C193.94 72.4068 193.482 72.0218 193.086 71.4967C192.691 70.9717 192.447 70.4257 192.364 69.9757C192.278 69.5093 192.374 69.2272 192.533 69.108C192.691 68.9887 192.989 68.9737 193.413 69.1848C193.823 69.3885 194.281 69.7735 194.676 70.2986C195.072 70.8236 195.316 71.3696 195.399 71.8196C195.485 72.286 195.388 72.568 195.23 72.6873Z" stroke="#DA8B5B" stroke-width="0.5"/>
<path d="M195.23 72.6873C195.072 72.8066 194.774 72.8216 194.349 72.6105C193.94 72.4068 193.482 72.0218 193.086 71.4967C192.691 70.9717 192.447 70.4257 192.364 69.9757C192.278 69.5093 192.374 69.2272 192.533 69.108C192.691 68.9887 192.989 68.9737 193.413 69.1848C193.823 69.3885 194.281 69.7735 194.676 70.2986C195.072 70.8236 195.316 71.3696 195.399 71.8196C195.485 72.286 195.388 72.568 195.23 72.6873Z" stroke="#D0795E" stroke-width="0.5"/>
<path d="M195.23 72.6873C195.072 72.8066 194.774 72.8216 194.349 72.6105C193.94 72.4068 193.482 72.0218 193.086 71.4967C192.691 70.9717 192.447 70.4257 192.364 69.9757C192.278 69.5093 192.374 69.2272 192.533 69.108C192.691 68.9887 192.989 68.9737 193.413 69.1848C193.823 69.3885 194.281 69.7735 194.676 70.2986C195.072 70.8236 195.316 71.3696 195.399 71.8196C195.485 72.286 195.388 72.568 195.23 72.6873Z" stroke="#AC5656" stroke-width="0.5"/>
<path d="M246.701 32.3418C246.543 32.461 246.245 32.476 245.82 32.2649C245.411 32.0612 244.953 31.6762 244.557 31.1512C244.162 30.6261 243.918 30.0801 243.835 29.6301C243.749 29.1637 243.845 28.8817 244.004 28.7624C244.162 28.6431 244.46 28.6281 244.884 28.8392C245.294 29.0429 245.752 29.4279 246.147 29.953C246.543 30.478 246.787 31.024 246.87 31.474C246.956 31.9404 246.859 32.2225 246.701 32.3418Z" stroke="#FFE298" stroke-width="0.5"/>
<path d="M246.701 32.3418C246.543 32.461 246.245 32.476 245.82 32.2649C245.411 32.0612 244.953 31.6762 244.557 31.1512C244.162 30.6261 243.918 30.0801 243.835 29.6301C243.749 29.1637 243.845 28.8817 244.004 28.7624C244.162 28.6431 244.46 28.6281 244.884 28.8392C245.294 29.0429 245.752 29.4279 246.147 29.953C246.543 30.478 246.787 31.024 246.87 31.474C246.956 31.9404 246.859 32.2225 246.701 32.3418Z" stroke="#FFCE8F" stroke-width="0.5"/>
<path d="M246.701 32.3418C246.543 32.461 246.245 32.476 245.82 32.2649C245.411 32.0612 244.953 31.6762 244.557 31.1512C244.162 30.6261 243.918 30.0801 243.835 29.6301C243.749 29.1637 243.845 28.8817 244.004 28.7624C244.162 28.6431 244.46 28.6281 244.884 28.8392C245.294 29.0429 245.752 29.4279 246.147 29.953C246.543 30.478 246.787 31.024 246.87 31.474C246.956 31.9404 246.859 32.2225 246.701 32.3418Z" stroke="#DA8B5B" stroke-width="0.5"/>
<path d="M246.701 32.3418C246.543 32.461 246.245 32.476 245.82 32.2649C245.411 32.0612 244.953 31.6762 244.557 31.1512C244.162 30.6261 243.918 30.0801 243.835 29.6301C243.749 29.1637 243.845 28.8817 244.004 28.7624C244.162 28.6431 244.46 28.6281 244.884 28.8392C245.294 29.0429 245.752 29.4279 246.147 29.953C246.543 30.478 246.787 31.024 246.87 31.474C246.956 31.9404 246.859 32.2225 246.701 32.3418Z" stroke="#D0795E" stroke-width="0.5"/>
<path d="M246.701 32.3418C246.543 32.461 246.245 32.476 245.82 32.2649C245.411 32.0612 244.953 31.6762 244.557 31.1512C244.162 30.6261 243.918 30.0801 243.835 29.6301C243.749 29.1637 243.845 28.8817 244.004 28.7624C244.162 28.6431 244.46 28.6281 244.884 28.8392C245.294 29.0429 245.752 29.4279 246.147 29.953C246.543 30.478 246.787 31.024 246.87 31.474C246.956 31.9404 246.859 32.2225 246.701 32.3418Z" stroke="#AC5656" stroke-width="0.5"/>
<path d="M61.2255 174.76C73.3116 167.861 96.8836 152.958 94.4822 148.529C91.4805 142.994 127.378 128.029 128.55 122.858C129.721 117.686 167.104 98.4834 164.603 94.1299C162.102 89.7764 195.881 74.069 194.941 71.2689C194 68.4687 223.17 52.3359 222.792 50.2817C222.413 48.2276 245.864 36.4046 245.914 31.2981C245.965 26.1915 270.352 15.6119 270.035 13.1217" stroke="#D0795E" stroke-width="2"/>
<ellipse cx="60.1949" cy="175.727" rx="10.1156" ry="10.1156" transform="rotate(53 60.1949 175.727)" fill="#D0795E"/>
<rect width="2.00942" height="13.4503" rx="1.00471" transform="matrix(-0.0558535 0.998439 -0.998439 -0.0558517 73.1867 174.98)" fill="#FFE298"/>
<rect width="2.00942" height="13.4503" rx="1.00471" transform="matrix(-0.0558535 0.998439 -0.998439 -0.0558517 73.1867 174.98)" fill="#FFCE8F"/>
<rect width="2.00942" height="13.4503" rx="1.00471" transform="matrix(-0.0558535 0.998439 -0.998439 -0.0558517 73.1867 174.98)" fill="#DA8B5B"/>
<rect width="2.00942" height="13.4503" rx="1.00471" transform="matrix(-0.0558535 0.998439 -0.998439 -0.0558517 73.1867 174.98)" fill="#D0795E"/>
<rect width="2.00942" height="13.4503" rx="1.00471" transform="matrix(-0.0558535 0.998439 -0.998439 -0.0558517 73.1867 174.98)" fill="#AC5656"/>
<ellipse cx="73.0085" cy="175.922" rx="2.8099" ry="2.80991" transform="rotate(53 73.0085 175.922)" fill="#D0795E"/>
<path d="M265.706 98.9691C247.598 110.15 257.144 146.321 264.181 163.01C261.693 165.901 257.158 172.507 258.92 175.806C261.123 179.93 263.97 171.855 267.862 171.948C271.754 172.04 272.719 176.135 275.646 172.133C277.988 168.932 271.573 164.779 268.073 163.102C274.829 137.066 283.815 87.7887 265.706 98.9691Z" fill="#FFCE8F"/>
<path d="M259.754 113.597C262.777 115.498 269.762 118.508 273.519 115.341" stroke="#FBB581" stroke-width="3"/>
<path d="M260.302 120.336C260.757 121.055 261.851 122.179 262.589 120.922" stroke="#FBB581"/>
<path d="M264.136 122.851C264.591 123.569 265.685 124.693 266.423 123.436" stroke="#FBB581"/>
<path d="M268.095 120.113C268.55 120.832 269.645 121.955 270.383 120.698" stroke="#FBB581"/>
<path d="M258.787 124.493C259.242 125.212 260.336 126.336 261.074 125.079" stroke="#FBB581"/>
<path d="M261.525 128.453C261.979 129.172 263.074 130.295 263.812 129.038" stroke="#FBB581"/>
<path d="M269.41 124.392C269.864 125.111 270.959 126.235 271.697 124.978" stroke="#FBB581"/>
<path d="M266.84 128.225C267.295 128.944 268.389 130.068 269.127 128.811" stroke="#FBB581"/>
<path d="M263.715 125.673C264.17 126.392 265.264 127.515 266.002 126.258" stroke="#FBB581"/>
<path d="M268.862 132.522C269.317 133.24 270.411 134.364 271.149 133.107" stroke="#FBB581"/>
<path d="M264.566 134.543C265.02 135.262 266.115 136.386 266.853 135.129" stroke="#FBB581"/>
<path d="M258.601 132.277C259.056 132.996 260.151 134.12 260.888 132.863" stroke="#FBB581"/>
<path d="M268.019 138.166C268.474 138.885 269.569 140.008 270.307 138.751" stroke="#FBB581"/>
<path d="M259.882 137.972C260.337 138.691 261.431 139.814 262.169 138.557" stroke="#FBB581"/>
<path d="M263.706 140.895C264.161 141.614 265.255 142.738 265.993 141.481" stroke="#FBB581"/>
<path d="M260.067 145.057C260.522 145.776 261.616 146.899 262.354 145.642" stroke="#FBB581"/>
<path d="M267.885 143.827C268.34 144.546 269.434 145.669 270.172 144.412" stroke="#FBB581"/>
<path d="M264.262 147.281C264.717 148 265.811 149.123 266.549 147.866" stroke="#FBB581"/>
<path d="M261.684 151.467C262.139 152.186 263.234 153.31 263.972 152.053" stroke="#FBB581"/>
<path d="M266.217 154.408C266.671 155.126 267.766 156.25 268.504 154.993" stroke="#FBB581"/>
<path d="M263.319 157.171C263.774 157.89 264.868 159.013 265.606 157.756" stroke="#FBB581"/>
<path d="M260.735 176.458L260.84 172.035M263.625 174.049L263.734 169.449M266.156 171.808L266.261 167.385M268.287 171.505L268.372 167.967M270.57 172.267L270.671 168.021M272.668 173.379L272.769 169.133M274.993 172.372L275.056 169.719M262.357 175.258L262.449 171.366M259.328 176.071L259.413 172.532" stroke="#FBB581"/>
<ellipse cx="265.748" cy="107.19" rx="1.59262" ry="1.59262" transform="rotate(-88.6355 265.748 107.19)" fill="#FBB581"/>
<ellipse cx="265.921" cy="107.371" rx="0.707832" ry="0.707831" transform="rotate(-88.6355 265.921 107.371)" fill="#D0795E"/>
<path d="M270.5 13.5V85.5" stroke="#D0795E" stroke-width="2"/>
<ellipse cx="270.7" cy="91" rx="4.5" ry="9" fill="url(#paint0_linear_3_576)"/>
<line x1="42.3046" y1="166.698" x2="53.1609" y2="181.056" stroke="#D0795E"/>
<line x1="35.9235" y1="171.523" x2="46.7798" y2="185.881" stroke="#D0795E"/>
<line x1="29.5424" y1="176.349" x2="40.3987" y2="190.706" stroke="#D0795E"/>
<line x1="23.1613" y1="181.174" x2="34.0176" y2="195.531" stroke="#D0795E"/>
<line x1="16.7799" y1="185.999" x2="27.6363" y2="200.356" stroke="#D0795E"/>
<line x1="10.3988" y1="190.824" x2="21.2552" y2="205.181" stroke="#D0795E"/>
<defs>
<linearGradient id="paint0_linear_3_576" x1="270.7" y1="91" x2="270.7" y2="91.2368" gradientUnits="userSpaceOnUse">
<stop stop-color="#DA8B5B"/>
<stop offset="1" stop-color="#FFE298"/>
</linearGradient>
</defs>
</svg>
